<?xml version="1.0" encoding="UTF-8" standalone="no"?>
<svg
   width="512"
   height="512"
   viewBox="0 0 512 512"
   fill="none"
   version="1.1"
   id="svg280"
   xml:space="preserve"
   xmlns="http://www.w3.org/2000/svg"
   xmlns:svg="http://www.w3.org/2000/svg"><defs
     id="defs284" /><rect
     width="512"
     height="512"
     rx="95"
     fill="#CC0000"
     id="rect264"
     style="fill:#e73d75;fill-opacity:1" /><path
     d="M 49.971285,141.0413 258.58703,35.948151 467.20067,141.0413 V 351.05661 L 258.58703,456.15056 49.971285,351.05661 Z"
     fill="#CC0000"
     id="path266"
     style="opacity:0.23236;fill:#000000;fill-opacity:1;stroke-width:1" /><path
     d="m 271.84497,37.466412 c -9.35986,-4.554519 -24.37253,-4.554519 -33.72976,0 L 53.286561,129.40108 c -9.359073,4.55545 -16.766868,16.02572 -16.766868,25.13529 v 183.86961 c 0,9.27687 7.60316,20.57852 16.766868,25.13528 l 184.828649,91.93349 c 9.35723,4.55412 24.3699,4.55412 33.72976,0 l 184.82601,-91.93349 c 9.35987,-4.55544 16.76872,-16.02703 16.76872,-25.13528 V 154.53637 c 0,-9.27819 -7.60514,-20.57984 -16.7674,-25.13529 z m 163.96689,96.151548 c 9.35723,4.55413 9.35723,12.14609 0,16.70021 L 273.98832,230.7827 c -9.35723,4.55412 -24.3699,4.55412 -33.72844,0 L 76.096699,149.13782 c -9.359863,-4.55413 -9.359863,-12.14609 0,-16.70021 L 237.91761,51.973739 c 9.35986,-4.554519 24.37121,-4.554519 33.72976,0 L 435.80791,133.61796 Z M 50.946924,167.86149 c 0,-9.27687 7.603819,-12.98788 16.766078,-8.43375 l 165.527968,82.31937 c 9.35723,4.55544 16.76608,16.02572 16.76608,25.13528 v 163.28977 c 0,9.27819 -7.60251,12.98788 -16.76608,8.43376 L 67.713002,356.28654 C 58.355773,351.7311 50.946924,340.26082 50.946924,331.15126 Z M 281.59346,436.07526 c -9.35987,4.55544 -16.7674,0.84443 -16.7674,-8.43375 V 266.88239 c 0,-9.27818 7.6025,-20.57984 16.76608,-25.13528 l 160.6524,-79.78872 c 9.35987,-4.55544 16.7674,-0.84443 16.7674,8.43376 v 160.75911 c 0,9.27819 -7.60382,20.57984 -16.7674,25.13528 l -160.6524,79.78872 z"
     fill="#910505"
     id="path272"
     style="opacity:1;fill:#ffffff;fill-opacity:1;stroke-width:1" /><g
     id="g2911"
     transform="matrix(11.683881,0,0,11.683881,275.83516,197.01485)"
     style="fill:#ffffff;stroke-width:4.2794"><path
       fill-rule="evenodd"
       clip-rule="evenodd"
       d="M 9.253,2.782 8.143,2.509 A 4.021,4.021 0 0 0 7.55,3.534 l 0.79,0.825 a 3.005,3.005 0 0 0 0,1.282 L 7.55,6.466 c 0.147,0.372 0.348,0.717 0.593,1.025 l 1.11,-0.273 c 0.315,0.288 0.693,0.509 1.109,0.641 l 0.318,1.097 a 3.999,3.999 0 0 0 1.185,0 l 0.318,-1.097 a 2.985,2.985 0 0 0 1.11,-0.641 l 1.11,0.273 C 14.648,7.183 14.849,6.838 14.996,6.466 L 14.204,5.641 a 3.005,3.005 0 0 0 0,-1.282 L 14.996,3.534 A 4.021,4.021 0 0 0 14.403,2.509 l -1.11,0.273 A 2.985,2.985 0 0 0 12.183,2.141 L 11.865,1.044 a 3.985,3.985 0 0 0 -1.185,0 L 10.362,2.141 A 2.982,2.982 0 0 0 9.252,2.782 Z M 12.273,5 a 1,1 0 1 1 -2,0 1,1 0 0 1 2,0 z"
       fill="#000000"
       id="path2899"
       style="fill:#ffffff;stroke-width:21.9386" /><path
       fill-rule="evenodd"
       clip-rule="evenodd"
       d="M 6.915,6.264 A 4.54,4.54 0 0 0 5.7,6.04 L 5.255,6.958 A 3.588,3.588 0 0 0 3.891,7.328 L 3.041,6.764 C 2.696,6.99 2.381,7.263 2.109,7.574 l 0.44,0.92 C 2.279,8.885 2.087,9.327 1.989,9.792 l -0.971,0.312 a 4.51,4.51 0 0 0 0.051,1.233 l 0.995,0.23 c 0.136,0.456 0.363,0.88 0.665,1.248 l -0.362,0.954 c 0.298,0.287 0.632,0.532 0.996,0.728 l 0.8,-0.633 a 3.58,3.58 0 0 0 1.39,0.257 l 0.521,0.877 c 0.409,-0.053 0.81,-0.162 1.19,-0.324 l 0.004,-1.02 a 3.58,3.58 0 0 0 1.067,-0.927 l 1.01,0.14 c 0.215,-0.353 0.38,-0.735 0.49,-1.133 L 9.039,11.095 A 3.61,3.61 0 0 0 8.981,9.682 L 9.72,8.981 A 4.508,4.508 0 0 0 9.139,7.891 L 8.144,8.115 A 3.588,3.588 0 0 0 7.003,7.281 Z m -1.15,2.82 A 1.477,1.477 0 1 1 5.227,11.988 1.4772903,1.4772903 0 0 1 5.766,9.083 Z"
       fill="#000000"
       id="path2901"
       style="fill:#ffffff;stroke-width:21.9386" /></g><g
     style="fill:none;stroke:#f9f9f9;stroke-width:1.90663;stroke-dasharray:none"
     id="g2928"
     transform="matrix(5.9030379,0,0,5.9911518,80.874922,227.48241)"><path
       d="m 20,7 c 0,2.20914 -3.5817,4 -8,4 C 7.58172,11 4,9.20914 4,7 4,4.79086 7.58172,3 12,3 c 4.4183,0 8,1.79086 8,4 z"
       stroke="#323232"
       stroke-width="2"
       id="path2913"
       style="stroke:#f9f9f9;stroke-width:1.90663;stroke-dasharray:none" /><path
       d="m 20,12 c 0,2.2091 -3.5817,4 -8,4 -4.41828,0 -8,-1.7909 -8,-4"
       stroke="#323232"
       stroke-width="2"
       id="path2915"
       style="stroke:#f9f9f9;stroke-width:1.90663;stroke-dasharray:none" /><path
       d="m 4,7 v 10 c 0,2.2091 3.58172,4 8,4 4.4183,0 8,-1.7909 8,-4 V 7"
       stroke="#323232"
       stroke-width="2"
       id="path2917"
       style="stroke:#f9f9f9;stroke-width:1.90663;stroke-dasharray:none" /></g><path
     style="color:#000000;fill:#ffffff;stroke-linecap:round;stroke-linejoin:round;-inkscape-stroke:none"
     d="m 254.42068,123.77765 c -3.54771,0.0994 -7.01142,0.37163 -10.40039,0.79688 -23.43795,2.94101 -42.90612,12.92848 -61.83593,22.63476 -4.8627,-4.90687 -8.81797,-10.07 -11.53321,-15.52734 -2.08791,-4.19778 -8.28521,-3.47264 -9.34765,1.09375 l -7.30664,31.41797 c -0.66122,2.84409 1.24483,5.64731 4.13281,6.07812 l 49.41211,7.375 c 5.45531,0.81631 8.02011,-6.50487 3.24804,-9.27148 -7.57571,-4.39399 -14.36415,-9.12163 -20.46289,-14.06836 17.63261,-8.96543 34.99656,-17.30834 54.9375,-19.81055 22.40454,-2.81134 48.57061,1.61591 83.00782,21.39649 -6.19712,5.1423 -13.15371,10.02689 -20.96289,14.52539 -4.78041,2.75832 -2.22476,10.08884 3.23437,9.27734 l 49.41406,-7.375 c 2.88718,-0.43182 4.7921,-3.2347 4.13086,-6.07812 l -7.30664,-31.41797 c -1.05262,-4.51786 -7.15574,-5.29181 -9.30273,-1.17969 -2.79642,5.36173 -6.66608,10.45276 -11.37696,15.28516 -32.23679,-19.00614 -58.7579,-25.7945 -81.68164,-25.15235 z"
     id="path5372" /></svg>
